<?xml version="1.0" encoding="UTF-8"?>
<svg xmlns="http://www.w3.org/2000/svg"
     version="1.2"
     baseProfile="tiny-ps"
     viewBox="0 0 2048 2048"
     width="512"
     height="512">
<title>SlotMe</title>
<rect width="2048" height="2048" fill="#FFFFFF"/>
<path transform="translate(0)" d="m0 0h2048v2048h-2048z" fill="#492AED"/>
<path transform="translate(0)" d="m0 0h2048v2048h-2048zm399 354-11 2-26 7-17 6-24 12-16 12-17 13-33 33-16 24-8 15-6 15-6 16-5 19-5 29-1 19v309l-1 227-1 505 1 28 7 47 7 27 7 19 11 21 11 16 10 14 12 13 26 26 12 9 15 10 14 8 14 7 27 9 26 6 24 4 29 2h1129l33-3 26-5 29-8 24-11 18-10 16-12 7-7 11-9 23-23 11-14 14-21 5-9 12-23 5-13 3-7 4-18 3-14 1-18 2-10v-164l1-98 1-331v-111l-1-52-1-118v-66l1-52 1-31v-50l-4-24-2-20-7-31-8-23-12-22-16-24-11-12-7-8-10-9-17-12-16-9-29-13-12-4-5-2-41-7-17-1h-71l-1 1-1 105-1 16-6 20-5 15-12 25-13 19-7 9-8 7-10 9-10 7-5 5-10 4-8 4-7 2-2 3-31 8-17 3v1h-30l-6-2-21-3-5-3-12-3-7-4-13-4-5-4-8-5-11-8-17-17-7-8-11-13-5-9-4-7-7-14-4-12-3-10-4-21-2-26-1-88-1-2h-387l-3 1-1 32-1 80-1 13-3 10-4 18-4 8-4 9-6 10-10 13-7 9-18 21-8 4-10 8v2l-10 3-7 5-7 3-9 4-15 4-6 2-21 2-9 4h-9l-18-4-22-3-10-4-12-4-21-11-14-9-6-5-5-5-4-2-2-4-8-7-4-6-9-10-7-12-8-15-4-11-4-8-5-22-2-14-1-30v-71l-1-8z" fill="#FEFDFD"/>
<path transform="translate(560,773)" d="m0 0h920l25 5 13 4 17 8 20 12 14 11 19 19 11 17 12 23 5 21 3 24v341l-1 259-2 23-6 27-7 18-12 19-8 11-11 11-5 6-12 9-9 6-14 8-13 6-15 4-9 1-1 3-7 1-29 1h-892l-9-1-7-4-13-2-20-7-14-7-10-7-11-8-14-13-9-11-7-10-7-11-7-15-5-14-6-25-2-17-1-30v-40l1-69 2-62 1-22v-220l-2-115v-57l4-13 3-14 6-13 3-7 8-14 9-12 12-13 12-11 21-14 15-8 13-5 16-3 5-3z" fill="#FEFDFD"/>
<path transform="translate(1338,936)" d="m0 0h16l16 2 16 8 5 4 13 10 10 11 8 13 6 12 2 8 4 14v13l-2 14-5 14-8 15-7 10-14 15-51 51-8 7-18 18-7 8h-2l-2 4-8 7-152 152-8 7-12 12-8 7-17 16-68 68-7 8-10 10-7 8-14 12-14 8-18 8-12 3h-10l-16-3-19-6-10-7-10-8-27-27-7-8-64-64-7-8-7-6v-2l-4-2-10-11-8-7-6-7-2-1v-2l-4-2-48-48-7-8-5-4-7-8-12-12-9-12-7-14-3-8-2-19v-12l2-16 7-18 9-14 11-12 9-8 10-7 12-6 4-1h44l10 2 16 7 12 9 6 5 7 8 23 23 7 8 21 21 8 7 36 36v2l4 2 27 27 5 4v2l4 2 5 5 5 1 15-11 13-13 8-7 43-43h2l2-4 8-8h2v-2l8-7 40-40 6-7 8-7 8-8 11-9 74-74 7-8 41-41 7-8 4-5h2l2-4 20-20 11-8 10-7 12-6 6-2z" fill="#492AED"/>
<path transform="translate(649,149)" d="m0 0h15l18 4 12 5 12 7 11 9 9 9 9 14 5 10 6 19 1 6 1 31v189l-1 9-3 4-3 15-6 9-7 12-18 18-14 8-10 5-5 1h-43l-10-1-17-9-10-8-9-9-9-12-8-16-4-12-1-6-1-17v-167l1-44 2-12 6-18 6-10 8-10 13-13 11-8 15-7z" fill="#492AED"/>
<path transform="translate(1372,150)" d="m0 0h27l15 5 16 10 9 7 7 6 8 10 8 13 6 13 4 24 2 24v55l-1 45-1 85-4 28-4 5-4 10-4 7-4 6-6 7-11 9-11 7-12 6-7 1h-34l-17-1-16-9-10-8-10-9-9-13-7-14-4-14-2-15-1-14v-195l3-28 5-13 10-15 14-14 14-10 14-7 10-3z" fill="#492AED"/>
<path transform="translate(1834,1399)" d="m0 0h1v249l-2 10-1 18-6 26-3 12-5 12-11 22-8 14-13 19-14 17-21 21-11 9-8 8-10 7-13 8-19 10-20 8-27 7-22 4-33 3h-1129l-29-2-34-6-26-7-22-8-11-6-12-7-12-8-11-8-12-11-26-26-10-13-16-24-11-21-8-24-4-15v-5l3 4 3 7 2 3v5l3 4 2 8 3 8v2l4 1 5 10-3 6 6 1 3 5 5 7v3l4 2 3 4v3h2l9 12v2h2v2l4 2 7 8 7 6 6 7 2 1v2h2l2 2 2 1v2l4 2 4 3v2l4 1 12 8 16 9 16 7 2 2 4 2 1 3 6 2-2 1 1 2 16 3v2l7 1 3 1 25 1h10l3-1 48 1 73-1h493l16 1 11-1 65 1h157l18 1h10l9-1 16 1h9l4-1 8 1 2-1 6 1 4-1 9 1h23l22-1h156l7-1 1-2h11l16-2 1 2 9-3 4-1h11l4-2v-2h10 2l4-4h6l4-4h2l2-4 10-4 7-3 9-6h3l5-5 9-3 3-3 7-6 5-6 5-3h2l1-4 3-2 2-6 5-1 2-3h2l1-3h2v-3l4-4 2-6h3l1-5 2-3h2l1-4h2l1-5 3-4 1-4h2v-3h2l1-5h2l1-8 3-3 3-7 4-10 3-8 2-1 2-8 2-13 2-7v-5l2-2v-7l2-9 1-13 1-6v-21l2-41 3-149z" fill="#5A41FD"/>
<path transform="translate(1338,936)" d="m0 0h16l16 2 16 8 5 4 13 10 10 11 8 13 6 12 2 8 4 14v13l-2 14-5 14-8 15-7 10-14 15-51 51-8 7-18 18-7 8h-2l-2 4-8 7-152 152-8 7-12 12-8 7-17 16-68 68-7 8-10 10-7 8-14 12-14 8-18 8-12 3h-10l-16-3-19-6-10-7-10-8-27-27-7-8-64-64-7-8-7-6v-2l-4-2-10-11-8-7-6-7-2-1v-2l-4-2-48-48-7-8-5-4-7-8-12-12-9-12-7-14-3-8-2-19v-12l2-16 7-18 9-14 11-12 9-8 10-7 12-6 4-1h44l10 2 16 7 12 9 6 5 7 8 23 23 7 8 21 21 8 7 36 36v2l4 2 27 27 5 4v2l4 2 5 5 5 1 15-11 13-13 8-7 43-43h2l2-4 8-8h2v-2l8-7 40-40 6-7 8-7 8-8 11-9 74-74 7-8 41-41 7-8 4-5h2l2-4 20-20 11-8 10-7 12-6 6-2zm-8 2-9 1-3 3h-4v3l-4 2h-4l-4 1v3h-4l-7 5v3l-8 7-6 5-5 3v3h-2l-1 4-3-1-2 4-2 1-1 3h-3l-3 5-7 8-3 3v2l-4 2-4 4v2h-3l-4 5-2 1v2l-4 1-3 5-3 1-2 4h-2v3h-2v2l-5 2-5 5v2l-5 2-3 3v3l-4 2-4 4v2l-4 2v2l-5 2-3 4v2l-4 2v2l-4 2v2l-4 2v2l-4 2v2l-4 2v2l-4 2-5 6-3 2v2l-3 1-3 4v2h-2v2l-4 2-11 12-4 4v2l-4 2v2l-4 2v2l-7 2-4 4v2h-2l-3 4-8 6-5 5v5h-4v2h-2v3l-2 1-5 6-2 1v3l-4 2v2l-4 2v2h-2l-5 5-6 7-6 5-4 5v2h-2v2h-2l-4 4v2h-2v2h-2v2l-4 2-8 7-7 8-19 19-4 2-1 3h-2v3l-5 1-2 4-8 4v2l-11 1-10-1h-2v-2h-2v3l-4-2 2-5h-2l-1-4-4-1-1 3 4 2v2l-6-4-6-7h-2l-2-4-108-108-8-7-10-10h-2v-2l-10-8-4-2-2-3-6-2-10-1v-2l-8-3h-35l-13 4-9 5v2l-6 2v2l-4 2-4 4v3l-4 1v3h-2l-5 6-1 4-3 4-2 4-2 1-5 11v2h-2l-1 2v42l3 6 4 3 12 20 4 1 1 4 8 7 4 5 3 1 5 7 5 5 4 5 2 4 1 3h3l5 4 1 2h3v2h2l2 4 5 6 7 6 10 10 5 3 1 3h2l2 4 4 1 2 4 4 5 2-1 1 3 3 1v2l7 6 3 5 2 1 2 3 2-1 1 3 4 4v2l6 3 6 8h2l3 4h2v2l4 4h2v2h2l1 5 3 3 3 1 6 8h2v2h2v2h2v7l7 5 1-1v2l4 1 1 2 5 3 3 4v2l7 4 4 5 2 5h2v2l4 1 1 2 3 1 1 4 3 1 10 10 3 1 1 3 9 5 5 4 10 4 6 3 9 1 10 2 20-2 10-4 4-1 7-5 7-4 9-6 9-5 6-5 6-7 5-3v-2l4-2 8-7 56-56 1-6h2l6-7 4-3v-2h2v-2l3 1 8-7 10-13 6-7v-2l4-2v-2l4-2v-2l4-2v-2l4-2v-2l3-1 6-7 7-6v-2l4-2v-2l4-2v-2l4-2v-2l4-2v-2l4-2v-2l4-2 4-4v-2l4-2v-2l4-2v-2l4-2v-2l4-2v-2l4-2 5-6 3-2v-2l4-2v-2l4-2v-2l3-1 5-5v-2l3-1 5-6 8-7v-2l4-2v-2l4-2v-2l4-2v-2l3-1 7-8 2-1v-2l4-2v-2l4-2 4-4v-2l4-2v-2l4-2v-2l4-2 8-8v-2l4-2 5-6 7-6 4-4v-2l4-2v-2l4-2v-2l4-2 8-7 5-6 7-6 7-8 22-22v-2l3-1v-2l4-2 3-3v-2h3v-2l2-1 1-4h2l1-8-1-2h2v-3h2v-5l4-1 3-10 1-19-3-22-2-7-3-4-2-4h-2v-5l-4-2-2-5h-2v-2l-3-3-2-3-8-6-6-4-10-7-3-2h-5l-1-4h-4v-2l-16-3-3-1h-6l-2-1z" fill="#5A41FD"/>
<path transform="translate(549,765)" d="m0 0h10l4 2h57l7-1 5 1h81l85-1h5l2-1v2h5v-2l5 1 9 1 1-2 7 2v-2l2 1h18l4-1 6 2v-2l3 1h30 4 8l3 1v-2l6 2v-2l9 1 6 1 1-2 5 1 2-1v2l8-1h10l5-1 4 1h17l2-1 8 1h20l6-1v2h56l51-1 48 1v-2h3v2l8-1 3-1 6 1 3-1v2l3-2h61l4 1 3-1 3 2v-2l5 1 4-1 2 1 27 1h39l9-1h13 3l18 1h82l8-1h10l1 3 7-1 6 2v3l5 2h5l3-1 5 2 2 3-1 2 6 1 5-2 10 7 5 2v3h3l6 3v2l4 1 1 3 5 1 6 6v2l4 1 5 6 6 5 1 4 4 2 2 7h2v4l3 1 5 15 2 1 2 5 3 1 2 7-1 1v10l7 9v29l-1 13v161l-1 156h-1l-1-331-3-24-5-21-13-25-8-12-9-10-13-13-15-11-21-12-18-8-26-6-7-1h-920l-9 2-3 2-19 4-18 8-15 9-14 10-15 14-9 10-10 15-7 12-4 11-4 9-3 14-3 10v109h-1l-1-42v-73l1-3h-2l1-5-1-2h2l-1-8 3-9 2-4 2-2v-2h2l-1-3 9-17 7-7 4-2 2-6 7-8 3-3 6-3 6-8 8-5 2-2 8-3 2-3h2v-2l4-2h4l1-4 5-1 2 1 2-4 7-4 3-3 4 2 7 1 1-3h2l1-3z" fill="#5A41FD"/>
<path transform="translate(1552,354)" d="m0 0h71l17 1 41 7 14 5 17 7 21 10 19 12 11 9 9 8 7 8 10 11 16 25 9 16-2 4-7-7-4-3-3-6-11-17-4-5v-2h-2l-8-10v-2l-4-2-5-4-11-9-10-8-15-9-17-8-11-6-15-5-8-3-6-1-1-2-11-3-13-2-7-1-6-3v-2h-68l-8 1h-2l-2 3v49l2 31-2 33-2 19-1 5-3 13-6 11-3 7-6 10-2 3-5 7-2 2-2 1v5h-2l-2 4-6 5-5 5h-2l-1 4-7 7-5 6-7 4-10 2-4 6-4 4-9 1-6 3-3 5-8 2v-2l-5 1-3 3h-17l-9 3-3 2-6 1h-22l-6-3-9-2h-15l-7 1-6-4h-6v-2l-6-1-14-3-7-5-4-2 2-2-7-4-1 2h-2l-1-2h-2v-2l-4-1-5-4-7-8-11-11-6-5-11-14-7-11-2-4v-5l-1-5v-3l-5-5-1-5h2l-2-8-3-2-3-17v-3l-4-2-1-2-2-22 1-23 1-75 2-3 1 88 2 26 5 26 5 13 4 10 7 14 5 8 11 14 7 7 7 8 13 13 10 7 10 6 4 3 11 3 10 5 9 2 5 3 25 4 2 1h30l3-2 18-3 27-7 4-4 10-3 10-5 3-1 5-5 11-8 10-9 8-7 11-15 9-14 11-23 5-15 6-20 1-16 1-105z" fill="#5A41FD"/>
<path transform="translate(1372,150)" d="m0 0h27l15 5 16 10 9 7 7 6 8 10 8 13 6 13 4 24 2 24v55l-1 45-1 85-4 28-4 5-4 10-4 7-4 6-6 7-11 9-11 7-12 6-7 1h-34l-17-1-16-9-10-8-10-9-9-13-7-14-4-14-2-15-1-14v-195l3-28 5-13 10-15 14-14 14-10 14-7 10-3zm-4 7-11 1h-3v3l-4-1-11 6-5 5-4 2v2l-4 2-7 7-2 3-5 3-3 6v2h-2l-3 6v4l-4 4-1 2-2 32v169l1 31 2 18 3 7 2 1 1 10 6 3v2l2 1v7l4-2-1 5 3 6 3 2h8v2l5 2v2l5 3h2v2h3l1 4 8 1v2l9 2 20 2 14 2 4-2 7-1 3-3-1-2 3 1v-2l3 1 1-3 4-1v-2l4-1v-2l4-1 7-5v-2h2v-2h3l4-5v-2l3-1 5-9 4-4 1-9 2-1v-6h2l1-8 1-30v-164l1-14-1-7v-19l1-2v-7l-3-6-2-1-1-6-2-3h-5l-5-5-3-1-3-6 2-1-5-2v-2h-2v-2h-3l-1-3-4-2-8-6-5-2-6-4v-4l-16-2z" fill="#5A41FD"/>
<path transform="translate(399,354)" d="m0 0h88l1 8v80l1 21 3 20 2 6 2 10 6 13 5 12 5 9 8 13 10 11 4 6 8 7v2l4 2 5 5 9 7 15 9 19 10 14 4 6 3 27 4 13 3h9l9-4 21-2 27-8 6-4 7-3 6-4 8-2 1-3 9-7 9-5 9-10 9-11 14-18 8-13 6-13 3-9 4-18 2-5 1-13 1-80 1-32 3-1h387l-1 2h-381l-6 1v29l1 28 1 8v19l-2 31-1 23-4 2v11l-4 10-2 3h-2l-1 5h-2l-1 7h-2l-2 7-7 10-3 6-3 2-2 3-7 6-3 3h-2l-2 4-5 5-2 5-8 2v2h-2l-1 4-5 1-1 2-9 4-5 5-7 1-3 3-7 2h-4l-3 3-4 2-11 1h-15l-9 1-1 2h-3l-1 3h-16l-8-1-1-1-7-1-1-1-9-1-14 2-8-2-10-1-1-3h-7l-16-8-13-8-8-5v-2l-4-2-8-7v-2h-2v-2h-2l-1-4-4-2-3-2v-2h-2l-3-5-7-6-6-10-5-9-5-12-1-4 1-4-2-5-1-5-4-2-1-15-1-4h-5l-2-16v-36l2-11v-34l-1-7-1-15 3-12-58 1-1 1h-12l-16-2z" fill="#5A41FD"/>
<path transform="translate(1618,1258)" d="m0 0h1l1 217v63l-3 10-1 7h-1l-1 16-4 8-1 8-4 6-3 3-1 5-2 4h-2l-1 5-7 10-3 2h-4v2h-2v2h-2l-1 2-5 5-4 5-5 5-4 2v2l-5 1v2l-9 6-14 7-3 2-10 2h-16v2l-11 2-21 1-55 1h-778l-76-1-5 1h-15l-16-4-15-5-14-8-14-10-11-9v-2h-2v-2h-2v-2l-4-2-8-9v-2l-4-2-8-13-8-15-6-17 1-3-1-9-1-8-2-5-1-16v-11h1l3 22 7 26 6 15 7 13 8 12 8 10 11 12 11 9 12 8 11 7 20 8 10 3 10 1 7 4 9 1h892l29-1 7-1 3-3 16-3 18-7 10-6 6-4 11-7 12-10 7-8 7-7 13-20 6-11 7-18 5-24 2-23z" fill="#5B42FE"/>
<path transform="translate(570,232)" d="m0 0h1v106l1 117 2 10 2 3 2 1 1 8 4 2v3h2l6 9v3l4 2 5 7 3 2v2l4 2 9 7 7 3v2l6 1 5 2v2l21 1 1 1 4-1 3 1 8 1v-2l10-1 4-4 7-2 2 1 2-4 8-6 5-3 6-7h2v-2l3-1 2-6 2-1 2-4 4-4v-3l5-5 2-4v-10l2-4v-16l1-5-1-5 1-8v-16l1-7v-21l1-35 2-37 1-6 2-38h1v189l-1 9-3 4-3 15-6 9-7 12-18 18-14 8-10 5-5 1h-43l-10-1-17-9-10-8-9-9-9-12-8-16-4-12-1-6-1-17v-167z" fill="#5A41FD"/>
<path transform="translate(1618,1258)" d="m0 0h1l1 217v63l-3 10-1 7h-1l-1 16-4 8-1 8-4 6-3 3-1 5-2 4h-2l-1 5-7 10-3 2h-4v2h-2v2h-2l-1 2-5 5-4 5-5 5-4 2v2l-5 1v2l-9 6-14 7-3 2-10 2-14-1 1-2 16-5 11-5 14-8 9-6 9-7 6-5 7-8 7-7 13-20 6-11 7-18 5-24 2-23z" fill="#5A41FD"/>
<path transform="translate(213,534)" d="m0 0h1v13l-2 6 1 8 2 8 1 18v16l-2 2-1 7-1 22-1 90-1 169-2 427h-1v-208l1-227v-316l2-18z" fill="#5B42FE"/>
<path transform="translate(649,149)" d="m0 0h15l18 4 12 5 12 7 11 9 9 9 9 14 2 5-2 2-5-1v-3l-7-5-2-5-1-3h-3l-6-5-5-5-3-1v-2l-5-2-5-3-12-5-1-3-4-1-1 2-5-1-1-1-17-1-2-1-15 1-5-1-1 2-7 3-7 1-4 3-2-1 7-5 15-7z" fill="#5A41FD"/>
<path transform="translate(357,365)" d="m0 0 3 1-5 3-9 1v3h-4l-1 3-7 3-8 5-5 2-4 4v3l-9 7-8 6-5 5-9 4-1 3-4 2-4 7-4 2v2l-6 1-1 3-7 6-4 7-3 4h-2l-2 5-6 11h-3v2h-2l-3 9h-2l-1 2 1-5 8-15 11-16 7-9 32-32 12-9 19-14 26-13z" fill="#5A41FD"/>
<path transform="translate(207,1406)" d="m0 0h1l1 196 2 46 3 7 1 37h-1l-5-35-2-12-1-28v-34z" fill="#5B42FE"/>
<path transform="translate(1618,1258)" d="m0 0h1l1 217v63l-3 10-1 7h-3l1-11 2-12 1-15z" fill="#5B42FE"/>
<path transform="translate(1214,356)" d="m0 0h1l1 88 2 26 5 26 4 10-1 3-3-4-2-2-3-17v-3l-4-2-1-2-2-22 1-23 1-75z" fill="#5B42FE"/>
<path transform="translate(1830,531)" d="m0 0h1l3 27 3 17v50l-1 31h-1v-76l-3-4v-2h-2v-10l-4-10-1-6 1-5 2-4h2z" fill="#5B42FE"/>
<path transform="translate(599,175)" d="m0 0v3l-6 7h-2l-1 4-9 14-4 13-2 9-1 3h-2l-1 4v-8l5-17 7-14 9-11z" fill="#5B42FE"/>
<path transform="translate(679,614)" d="m0 0h9l-1 2-12 1-1 2h-3l-1 3h-16l-8-1-1-1-7-1-1-1-8-1v-2h7l18 4h9l9-4z" fill="#5B42FE"/>
<path transform="translate(647,1180)" d="m0 0 1 2-1 42-2-2-1-13v-12l2-16z" fill="#5B42FE"/>
<path transform="translate(391,355)" d="m0 0h8v2h-3v2l-14 3h-13l4-2z" fill="#5B42FE"/>
<path transform="translate(399,354)" d="m0 0h28v3h-12l-16-2z" fill="#5A41FD"/>
<path transform="translate(372,1867)" d="m0 0h7l8 2v2l7 1 6 2-4 1-23-6z" fill="#5B42FE"/>
<path transform="translate(1823,500)" d="m0 0 2 4 4 19-1 4v-3h-2l-2-7z" fill="#5B42FE"/>
<path transform="translate(1817,482)" d="m0 0 2 4 3 8v3h-2l-4-8v-6z" fill="#5B42FE"/>
<path transform="translate(222,501)" d="m0 0 1 3-2 7-4 12-1-4z" fill="#5B42FE"/>
<path transform="translate(357,365)" d="m0 0 3 1-5 3-9 1v3l-4-1 5-4z" fill="#5B42FE"/>
<path transform="translate(740,210)" d="m0 0 2 2 3 11-1 3-4-9z" fill="#5B42FE"/>
</svg>
